► Rainbow: Nisha Rokubou no Shichinin ◄


Sinopsis:
La historia se centra en 7 adolecentes, quienes tienen que aprender a vivir juntos en una misma habitacion en el reformatorio de Shio. Encerrados en un infierno donde el sufrimiento y la humillacion son diario, ellos esperan un rayo de esperanza en ese mundo oscuro y encarcelado.

Alrededor de 10 años después de la Segunda Guerra Mundial, un grupo de delincuentes son enviados al Reformatorio Shounan para aprender a superar las atrocidades e injusticias que encuentren allí. Un estudiante residente actúa como su mentor, enseñándoles amistad y guiándolos a enfrentarse a las dificultades.


→ Titulo: Rainbow: Nisha Rokubou no Shichinin (RAINBOW 二舎六房の七人)
→ Categoria: Serie
→ Genero: Drama, Historia, Recuerdos de vida, Seinen
→ Estudio: MAD House
→ Episodios: 26
→ Año: 2010
→ Fansub: Athena no Seinto
→ Idioma: Japones
→ Subtitulos: Español
→ Formato: MP4
→ Resolución: 848x480
→ Duración: 22 Min (c/u)
→ Aspecto: 16:9
→ Peso Aprox: 70 Mb
→ Servidor: P2P





Especificaciones de video:

►General
 Format                                   : MPEG-4
 Format profile                           : Base Media
 Codec ID                                 : isom
 File size                                : 70.9 MiB
 Duration                                 : 22mn 43s
 Overall bit rate mode                    : Variable
 Overall bit rate                         : 436 Kbps
 

 ▼Video
  ID                                       : 1
  Format                                   : AVC
  Format/Info                              : Advanced Video Codec
  Format profile                           : High@L4.1
  Format settings, CABAC                   : Yes
  Format settings, ReFrames                : 3 frames
  Codec ID                                 : avc1
  Codec ID/Info                            : Advanced Video Coding
  Duration                                 : 22mn 43s
  Duration_LastFrame                       : 42ms
  Bit rate                                 : 395 Kbps
  Maximum bit rate                         : 2 257 Kbps
  Width                                    : 848 pixels
  Height                                   : 480 pixels
  Display aspect ratio                     : 16:9
  Original display aspect ratio            : 16:9
  Frame rate mode                          : Constant
  Frame rate                               : 23.976 fps
  Color space                              : YUV
  Chroma subsampling                       : 4:2:0
  Bit depth                                : 8 bits
  Scan type                                : Progressive
  Bits/(Pixel*Frame)                       : 0.040
  Stream size                              : 64.2 MiB (90%)
  Title                                    : Imported with GPAC 0.4.6-DEV 
  Writing library                          : x264 core 114 r1900 60ef1f8


 ▼Audio
  ID                                       : 2
  Format                                   : AAC
  Format/Info                              : Advanced Audio Codec
  Format profile                           : HE-AAC / LC
  Codec ID                                 : 40
  Duration                                 : 22mn 43s
  Bit rate mode                            : Variable
  Bit rate                                 : 38.4 Kbps
  Maximum bit rate                         : 49.6 Kbps
  Channel(s)                               : 2 channels
  Channel positions                        : Front: L R
  Sampling rate                            : 48.0 KHz / 24.0 KHz
  Compression mode                         : Lossy
  Stream size                              : 6.25 MiB (9%)



>===========► ENJOY!!